<svg width="30" height="30" viewBox="0 0 30 30"  xmlns="http://www.w3.org/2000/svg">
<path d="M26.6438 13.6566L16.25 4.77532C15.9104 4.48483 15.4782 4.3252 15.0313 4.3252C14.5843 4.3252 14.1521 4.48483 13.8125 4.77532L3.35626 13.6566C3.2024 13.7853 3.07557 13.9432 2.98309 14.1213C2.89061 14.2993 2.83432 14.4939 2.81747 14.6938C2.80062 14.8937 2.82354 15.095 2.8849 15.286C2.94627 15.4769 3.04487 15.6539 3.17501 15.8066C3.32015 15.9829 3.50379 16.1236 3.71182 16.2179C3.91985 16.3121 4.14673 16.3575 4.37501 16.3503H5.68126V24.6566C5.68126 24.7904 5.70761 24.9228 5.7588 25.0464C5.81 25.17 5.88504 25.2823 5.97964 25.3769C6.07424 25.4715 6.18655 25.5466 6.31015 25.5978C6.43375 25.649 6.56622 25.6753 6.70001 25.6753H11.2938C11.4275 25.6753 11.56 25.649 11.6836 25.5978C11.8072 25.5466 11.9195 25.4715 12.0141 25.3769C12.1087 25.2823 12.1838 25.17 12.235 25.0464C12.2862 24.9228 12.3125 24.7904 12.3125 24.6566V19.5441C12.3125 19.3783 12.3784 19.2193 12.4956 19.1021C12.6128 18.9849 12.7717 18.9191 12.9375 18.9191H17.0875C17.2533 18.9191 17.4122 18.9849 17.5294 19.1021C17.6467 19.2193 17.7125 19.3783 17.7125 19.5441V24.6566C17.7125 24.7904 17.7389 24.9228 17.7901 25.0464C17.8413 25.17 17.9163 25.2823 18.0109 25.3769C18.1055 25.4715 18.2178 25.5466 18.3414 25.5978C18.465 25.649 18.5975 25.6753 18.7313 25.6753H23.325C23.4588 25.6753 23.5913 25.649 23.7149 25.5978C23.8385 25.5466 23.9508 25.4715 24.0454 25.3769C24.14 25.2823 24.215 25.17 24.2662 25.0464C24.3174 24.9228 24.3438 24.7904 24.3438 24.6566V16.3503H25.625C25.9392 16.3532 26.2467 16.259 26.5054 16.0805C26.764 15.9021 26.9612 15.648 27.07 15.3532C27.1787 15.0584 27.1938 14.7371 27.113 14.4334C27.0322 14.1297 26.8596 13.8584 26.6188 13.6566H26.6438Z"  stroke-width="1.5" stroke-linecap="round" stroke-linejoin="round"/>
</svg>
